#!OML:ASF H:\LiuWeirdWalks\Patient Classification 1\Patient 1\Session 1\male.ASF
:FULLY-SPECIFIED
:DEGREES
841
root 2.3106 18.0956 9.90879 0.226738 7.92211 2.57052
lowerback 5.24866 0.322438 -6.06788
upperback 0.310427 0.113578 1.57167
thorax -2.6418 0.137566 5.03922
lowerneck -14.8658 0.39413 3.54136
upperneck 22.1352 1.03049 -5.56042
head 9.47961 0.163781 -2.39303
rclavicle -8.07563e-015 3.97569e-015
rhumerus -36.9041 -8.73544 -76.9755
rradius 34.6764
rwrist -9.42381
rhand -17.4125 -2.87193
rfingers 7.12502
rthumb 8.83726 -32.6669
lclavicle -8.07563e-015 3.97569e-015
lhumerus -41.4698 -1.30786 87.4888
lradius 37.627
lwrist 12.6712
lhand -13.1719 -1.53238
lfingers 7.12502
lthumb 12.9275 28.0472
rfemur -35.1579 -8.83535 13.2274
rtibia 42.8666
rfoot -5.41634 -17.0471
rtoes -7.52617
lfemur -0.371448 -3.70714 -27.4916
ltibia 19.456
lfoot -10.3425 10.8821
ltoes -0.414318
842
root 2.30714 18.0968 9.97198 0.221718 8.0356 2.63226
lowerback 5.21792 0.299613 -6.09659
upperback 0.330763 0.0835148 1.56129
thorax -2.59946 0.120877 5.04671
lowerneck -14.8927 0.403068 3.56576
upperneck 22.1186 1.04203 -5.58717
head 9.47969 0.167967 -2.40492
rclavicle 7.50412e-015 3.97569e-016
rhumerus -36.943 -8.79472 -76.9111
rradius 34.6343
rwrist -9.43098
rhand -17.4094 -2.86266
rfingers 7.12502
rthumb 8.84031 -32.6575
lclavicle 7.50412e-015 3.97569e-016
lhumerus -41.5156 -1.32951 87.5285
lradius 37.5735
lwrist 12.5393
lhand -13.084 -1.49718
lfingers 7.12502
lthumb 13.0122 28.077
rfemur -35.1035 -8.72486 13.1149
rtibia 41.7792
rfoot -5.34186 -17.1227
rtoes -7.67825
lfemur 0.0215179 -3.73542 -27.5221
ltibia 19.1562
lfoot -10.3271 10.7899
ltoes -0.477511
843
root 2.30259 18.0979 10.0352 0.226895 8.14646 2.69293
lowerback 5.17403 0.276259 -6.13606
upperback 0.348985 0.0529851 1.55313
thorax -2.55188 0.103952 5.06261
lowerneck -14.8943 0.416275 3.60772
upperneck 22.0719 1.05734 -5.62557
head 9.46478 0.174519 -2.42267
rclavicle -1.08835e-014 -2.74323e-014
rhumerus -36.9862 -8.86808 -76.8446
rradius 34.5902
rwrist -9.42117
rhand -17.3942 -2.84912
rfingers 7.12502
rthumb 8.85493 -32.6433
lclavicle -1.08835e-014 -2.74323e-014
lhumerus -41.5605 -1.34414 87.5581
lradius 37.5219
lwrist 12.4114
lhand -12.9806 -1.4542
lfingers 7.12502
lthumb 13.1119 28.1136
rfemur -35.0408 -8.58626 13.0009
rtibia 40.6977
rfoot -5.28247 -17.2307
rtoes -7.85244
lfemur 0.398702 -3.76258 -27.5453
ltibia 18.8595
lfoot -10.3021 10.6955
ltoes -0.242855
844
root 2.29774 18.0989 10.0991 0.231543 8.25834 2.75087
lowerback 5.13195 0.253158 -6.17425
upperback 0.359392 0.0226506 1.54576
thorax -2.51343 0.0876108 5.07857
lowerneck -14.868 0.421889 3.63154
upperneck 22.0254 1.06277 -5.645
head 9.44404 0.177445 -2.43177
rclavicle -8.77137e-015 -7.55382e-015
rhumerus -37.0506 -8.94611 -76.7737
rradius 34.5524
rwrist -9.42334
rhand -17.373 -2.81824
rfingers 7.12502
rthumb 8.87542 -32.6116
lclavicle -8.77137e-015 -7.55382e-015
lhumerus -41.6187 -1.37495 87.5916
lradius 37.4697
lwrist 12.3111
lhand -12.884 -1.39483
lfingers 7.12502
lthumb 13.205 28.167
rfemur -34.9541 -8.43817 12.8845
rtibia 39.6275
rfoot -5.25656 -17.3541
rtoes -8.01646
lfemur 0.780831 -3.78969 -27.5641
ltibia 18.5574
lfoot -10.2678 10.6031
ltoes 0.170592
845
root 2.29219 18.0994 10.1634 0.245574 8.36886 2.80644
lowerback 5.07714 0.231439 -6.21241
upperback 0.362482 -0.00516661 1.53793
thorax -2.47574 0.0727252 5.09378
lowerneck -14.8052 0.425329 3.67043
upperneck 21.9549 1.06318 -5.67192
head 9.40782 0.179047 -2.44596
rclavicle -3.8266e-015 4.37326e-015
rhumerus -37.1327 -9.03232 -76.7005
rradius 34.5185
rwrist -9.42501
rhand -17.3548 -2.76813
rfingers 7.12502
rthumb 8.89295 -32.5607
lclavicle -3.8266e-015 4.37326e-015
lhumerus -41.6865 -1.4186 87.6239
lradius 37.4206
lwrist 12.228
lhand -12.7813 -1.34594
lfingers 7.12502
lthumb 13.304 28.2094
rfemur -34.8608 -8.27424 12.7676
rtibia 38.5736
rfoot -5.24699 -17.4971
rtoes -8.18361
lfemur 1.15394 -3.81553 -27.5757
ltibia 18.2511
lfoot -10.2304 10.5145
ltoes 0.497375
846
root 2.28635 18.0998 10.2282 0.267499 8.4936 2.873
lowerback 5.02746 0.205042 -6.26283
upperback 0.3518 -0.0405585 1.52839
thorax -2.4542 0.0550949 5.11473
lowerneck -14.7266 0.422623 3.69672
upperneck 21.9145 1.05633 -5.68396
head 9.37869 0.177995 -2.45418
rclavicle -8.92046e-015 1.59028e-015
rhumerus -37.2501 -9.10807 -76.6242
rradius 34.5033
rwrist -9.43461
rhand -17.3375 -2.73249
rfingers 7.12502
rthumb 8.90964 -32.5244
lclavicle -8.92046e-015 1.59028e-015
lhumerus -41.7789 -1.47631 87.663
lradius 37.3757
lwrist 12.1805
lhand -12.6968 -1.30462
lfingers 7.12502
lthumb 13.3855 28.2454
rfemur -34.7521 -8.11399 12.632
rtibia 37.54
rfoot -5.26011 -17.6662
rtoes -8.33301
lfemur 1.52642 -3.85377 -27.5976
ltibia 17.9377
lfoot -10.1935 10.4223
ltoes 0.87793
847
root 2.27996 18.0997 10.2934 0.300085 8.62384 2.94983
lowerback 4.97533 0.17523 -6.32898
upperback 0.3382 -0.0812603 1.51807
thorax -2.43353 0.0350804 5.14413
lowerneck -14.6648 0.424271 3.73679
upperneck 21.883 1.05482 -5.70753
head 9.35624 0.179041 -2.46837
rclavicle 7.10655e-015 -7.95139e-015
rhumerus -37.364 -9.17598 -76.5512
rradius 34.4871
rwrist -9.46042
rhand -17.3176 -2.71428
rfingers 7.12502
rthumb 8.92891 -32.5053
lclavicle 7.10655e-015 -7.95139e-015
lhumerus -41.8696 -1.53882 87.7033
lradius 37.3386
lwrist 12.1607
lhand -12.6222 -1.25948
lfingers 7.12502
lthumb 13.4573 28.2858
rfemur -34.6389 -7.9528 12.4817
rtibia 36.531
rfoot -5.26822 -17.857
rtoes -8.4645
lfemur 1.8898 -3.89603 -27.6273
ltibia 17.6243
lfoot -10.162 10.3262
ltoes 0.638935
